<mxfile host="app.diagrams.net" modified="2021-06-06T02:57:30.200Z" agent="5.0 (Windows NT 10.0; Win64; x64) AppleWebKit/537.36 (KHTML, like Gecko) Chrome/91.0.4472.77 Safari/537.36" etag="ygcCjPiZ0X5FMJPo0WhZ" version="14.7.6" type="github">
  <diagram id="qNtHvHr-Q_ltwnV1EGBj" name="Page-1">
    <mxGraphModel dx="-67" dy="1748" grid="1" gridSize="10" guides="1" tooltips="1" connect="1" arrows="1" fold="1" page="1" pageScale="1" pageWidth="827" pageHeight="1169" math="0" shadow="0">
      <root>
        <mxCell id="0" />
        <mxCell id="1" parent="0" />
        <mxCell id="Kb90lWqh0blAMlvWXbu4-127" value="Team" style="swimlane;fontStyle=1;align=center;verticalAlign=top;childLayout=stackLayout;horizontal=1;startSize=26;horizontalStack=0;resizeParent=1;resizeParentMax=0;resizeLast=0;collapsible=1;marginBottom=0;" parent="1" vertex="1">
          <mxGeometry x="1241" y="8" width="165" height="104" as="geometry" />
        </mxCell>
        <mxCell id="Kb90lWqh0blAMlvWXbu4-128" value="team ID" style="text;strokeColor=none;fillColor=none;align=left;verticalAlign=top;spacingLeft=4;spacingRight=4;overflow=hidden;rotatable=0;points=[[0,0.5],[1,0.5]];portConstraint=eastwest;" parent="Kb90lWqh0blAMlvWXbu4-127" vertex="1">
          <mxGeometry y="26" width="165" height="26" as="geometry" />
        </mxCell>
        <mxCell id="Kb90lWqh0blAMlvWXbu4-129" value="team name" style="text;strokeColor=none;fillColor=none;align=left;verticalAlign=top;spacingLeft=4;spacingRight=4;overflow=hidden;rotatable=0;points=[[0,0.5],[1,0.5]];portConstraint=eastwest;" parent="Kb90lWqh0blAMlvWXbu4-127" vertex="1">
          <mxGeometry y="52" width="165" height="26" as="geometry" />
        </mxCell>
        <mxCell id="Kb90lWqh0blAMlvWXbu4-130" value="team description" style="text;strokeColor=none;fillColor=none;align=left;verticalAlign=top;spacingLeft=4;spacingRight=4;overflow=hidden;rotatable=0;points=[[0,0.5],[1,0.5]];portConstraint=eastwest;" parent="Kb90lWqh0blAMlvWXbu4-127" vertex="1">
          <mxGeometry y="78" width="165" height="26" as="geometry" />
        </mxCell>
        <mxCell id="ZVWljfa0xVSs0D0JrF7P-7" value="Java Application" style="swimlane;fontStyle=1;align=center;verticalAlign=top;childLayout=stackLayout;horizontal=1;startSize=26;horizontalStack=0;resizeParent=1;resizeParentMax=0;resizeLast=0;collapsible=1;marginBottom=0;" parent="1" vertex="1">
          <mxGeometry x="1000" y="-80" width="160" height="28" as="geometry" />
        </mxCell>
        <mxCell id="ZVWljfa0xVSs0D0JrF7P-14" value="join/leave" style="edgeStyle=orthogonalEdgeStyle;rounded=0;orthogonalLoop=1;jettySize=auto;html=1;endArrow=open;endFill=0;" parent="1" source="ZVWljfa0xVSs0D0JrF7P-11" target="Kb90lWqh0blAMlvWXbu4-127" edge="1">
          <mxGeometry relative="1" as="geometry">
            <Array as="points">
              <mxPoint x="1185" y="60" />
              <mxPoint x="1185" y="60" />
            </Array>
            <mxPoint x="1045" y="130" as="targetPoint" />
          </mxGeometry>
        </mxCell>
        <mxCell id="p2IHR23QfJVKx5rubhaO-13" style="edgeStyle=orthogonalEdgeStyle;rounded=0;orthogonalLoop=1;jettySize=auto;html=1;endArrow=open;endFill=0;" parent="1" source="ZVWljfa0xVSs0D0JrF7P-11" target="ZVWljfa0xVSs0D0JrF7P-7" edge="1">
          <mxGeometry relative="1" as="geometry" />
        </mxCell>
        <mxCell id="ZVWljfa0xVSs0D0JrF7P-11" value="User" style="swimlane;fontStyle=1;align=center;verticalAlign=top;childLayout=stackLayout;horizontal=1;startSize=26;horizontalStack=0;resizeParent=1;resizeParentMax=0;resizeLast=0;collapsible=1;marginBottom=0;" parent="1" vertex="1">
          <mxGeometry x="1015" width="130" height="78" as="geometry" />
        </mxCell>
        <mxCell id="82unOVo_6anFtcZ8ufRb-1" value="UserId" style="text;strokeColor=none;fillColor=none;align=left;verticalAlign=top;spacingLeft=4;spacingRight=4;overflow=hidden;rotatable=0;points=[[0,0.5],[1,0.5]];portConstraint=eastwest;" parent="ZVWljfa0xVSs0D0JrF7P-11" vertex="1">
          <mxGeometry y="26" width="130" height="26" as="geometry" />
        </mxCell>
        <mxCell id="ZVWljfa0xVSs0D0JrF7P-44" value="nickname" style="text;strokeColor=none;fillColor=none;align=left;verticalAlign=top;spacingLeft=4;spacingRight=4;overflow=hidden;rotatable=0;points=[[0,0.5],[1,0.5]];portConstraint=eastwest;" parent="ZVWljfa0xVSs0D0JrF7P-11" vertex="1">
          <mxGeometry y="52" width="130" height="26" as="geometry" />
        </mxCell>
        <mxCell id="S7MmiMQ8yjXsU_2ZmJ1n-22" value="belongs to" style="edgeStyle=orthogonalEdgeStyle;rounded=0;orthogonalLoop=1;jettySize=auto;html=1;endArrow=diamond;endFill=0;" parent="1" edge="1">
          <mxGeometry relative="1" as="geometry">
            <Array as="points">
              <mxPoint x="1370" y="158" />
              <mxPoint x="1370" y="158" />
            </Array>
            <mxPoint x="1370" y="178" as="sourcePoint" />
            <mxPoint x="1370" y="112" as="targetPoint" />
          </mxGeometry>
        </mxCell>
        <mxCell id="S7MmiMQ8yjXsU_2ZmJ1n-18" value="Team Member" style="swimlane;fontStyle=1;align=center;verticalAlign=top;childLayout=stackLayout;horizontal=1;startSize=26;horizontalStack=0;resizeParent=1;resizeParentMax=0;resizeLast=0;collapsible=1;marginBottom=0;" parent="1" vertex="1">
          <mxGeometry x="1279" y="178" width="255" height="78" as="geometry" />
        </mxCell>
        <mxCell id="S7MmiMQ8yjXsU_2ZmJ1n-19" value="user ID" style="text;strokeColor=none;fillColor=none;align=left;verticalAlign=top;spacingLeft=4;spacingRight=4;overflow=hidden;rotatable=0;points=[[0,0.5],[1,0.5]];portConstraint=eastwest;" parent="S7MmiMQ8yjXsU_2ZmJ1n-18" vertex="1">
          <mxGeometry y="26" width="255" height="26" as="geometry" />
        </mxCell>
        <mxCell id="S7MmiMQ8yjXsU_2ZmJ1n-20" value="user type:1(member) or 2(waiting for accept)" style="text;strokeColor=none;fillColor=none;align=left;verticalAlign=top;spacingLeft=4;spacingRight=4;overflow=hidden;rotatable=0;points=[[0,0.5],[1,0.5]];portConstraint=eastwest;" parent="S7MmiMQ8yjXsU_2ZmJ1n-18" vertex="1">
          <mxGeometry y="52" width="255" height="26" as="geometry" />
        </mxCell>
        <mxCell id="S7MmiMQ8yjXsU_2ZmJ1n-23" value="1" style="text;html=1;align=center;verticalAlign=middle;resizable=0;points=[];autosize=1;strokeColor=none;" parent="1" vertex="1">
          <mxGeometry x="1371" y="108" width="20" height="20" as="geometry" />
        </mxCell>
        <mxCell id="S7MmiMQ8yjXsU_2ZmJ1n-24" value="*" style="text;html=1;align=center;verticalAlign=middle;resizable=0;points=[];autosize=1;strokeColor=none;" parent="1" vertex="1">
          <mxGeometry x="1371" y="163" width="20" height="20" as="geometry" />
        </mxCell>
        <mxCell id="p2IHR23QfJVKx5rubhaO-7" value="belongs to" style="edgeStyle=orthogonalEdgeStyle;rounded=0;orthogonalLoop=1;jettySize=auto;html=1;endArrow=diamond;endFill=0;" parent="1" source="p2IHR23QfJVKx5rubhaO-2" target="Kb90lWqh0blAMlvWXbu4-127" edge="1">
          <mxGeometry relative="1" as="geometry">
            <Array as="points">
              <mxPoint x="1190" y="150" />
              <mxPoint x="1280" y="150" />
            </Array>
          </mxGeometry>
        </mxCell>
        <mxCell id="p2IHR23QfJVKx5rubhaO-2" value="Team Owner" style="swimlane;fontStyle=1;align=center;verticalAlign=top;childLayout=stackLayout;horizontal=1;startSize=26;horizontalStack=0;resizeParent=1;resizeParentMax=0;resizeLast=0;collapsible=1;marginBottom=0;" parent="1" vertex="1">
          <mxGeometry x="1130" y="178" width="120" height="78" as="geometry" />
        </mxCell>
        <mxCell id="p2IHR23QfJVKx5rubhaO-3" value="user ID" style="text;strokeColor=none;fillColor=none;align=left;verticalAlign=top;spacingLeft=4;spacingRight=4;overflow=hidden;rotatable=0;points=[[0,0.5],[1,0.5]];portConstraint=eastwest;" parent="p2IHR23QfJVKx5rubhaO-2" vertex="1">
          <mxGeometry y="26" width="120" height="26" as="geometry" />
        </mxCell>
        <mxCell id="p2IHR23QfJVKx5rubhaO-4" value="user type: 0" style="text;strokeColor=none;fillColor=none;align=left;verticalAlign=top;spacingLeft=4;spacingRight=4;overflow=hidden;rotatable=0;points=[[0,0.5],[1,0.5]];portConstraint=eastwest;" parent="p2IHR23QfJVKx5rubhaO-2" vertex="1">
          <mxGeometry y="52" width="120" height="26" as="geometry" />
        </mxCell>
        <mxCell id="p2IHR23QfJVKx5rubhaO-10" value="1" style="text;html=1;align=center;verticalAlign=middle;resizable=0;points=[];autosize=1;strokeColor=none;" parent="1" vertex="1">
          <mxGeometry x="1279" y="112" width="20" height="20" as="geometry" />
        </mxCell>
        <mxCell id="p2IHR23QfJVKx5rubhaO-12" value="1" style="text;html=1;align=center;verticalAlign=middle;resizable=0;points=[];autosize=1;strokeColor=none;" parent="1" vertex="1">
          <mxGeometry x="1170" y="163" width="20" height="20" as="geometry" />
        </mxCell>
      </root>
    </mxGraphModel>
  </diagram>
</mxfile>
